PathFileType	4	(X/Y/Z)	G:\Shared drives\HPL_Drive\Nord Sprinting Study\Kristen_Nord_test\Trimmed_Nord000005.trc
DataRate	CameraRate	NumFrames	NumMarkers	Units	OrigDataRate	OrigDataStartFrame	OrigNumFrames
200.00	200.00	      4	52	mm	200.00	312	      2491
Frame#	Time	C7			R_Shoulder			L_Shoulder			Sternum			R_humerus			R_elbow_med			R_elbow_lat			R_forearm			R_wrist_radius			R_wrist_ulna			L_humerus			L_elbow_med			L_elbow_lat			L_forearm			L_wrist_radius			L_wrist_ulna			r.ASIS			r.PSIS			r_IC			L.ASIS			L.PSIS			l_IC			r_thigh1			r_thigh2			r_thigh3			r_thigh4			r_thigh5			r_knee			r_mknee			r_shank_antsup			r_sh2			r_sh3			r_sh4			r_ankle			r_mankle			r_calc			r_5meta			r_toe			L_thigh1			L_thigh2			L_thigh3			L_thigh4			L_knee			L_mknee			L_shank_antsup			L_sh2			L_sh3			L_ankle			L_mankle			L_calc			L_5meta			L_toe			
		X1	Y1	Z1	X2	Y2	Z2	X3	Y3	Z3	X4	Y4	Z4	X5	Y5	Z5	X6	Y6	Z6	X7	Y7	Z7	X8	Y8	Z8	X9	Y9	Z9	X10	Y10	Z10	X11	Y11	Z11	X12	Y12	Z12	X13	Y13	Z13	X14	Y14	Z14	X15	Y15	Z15	X16	Y16	Z16	X17	Y17	Z17	X18	Y18	Z18	X19	Y19	Z19	X20	Y20	Z20	X21	Y21	Z21	X22	Y22	Z22	X23	Y23	Z23	X24	Y24	Z24	X25	Y25	Z25	X26	Y26	Z26	X27	Y27	Z27	X28	Y28	Z28	X29	Y29	Z29	X30	Y30	Z30	X31	Y31	Z31	X32	Y32	Z32	X33	Y33	Z33	X34	Y34	Z34	X35	Y35	Z35	X36	Y36	Z36	X37	Y37	Z37	X38	Y38	Z38	X39	Y39	Z39	X40	Y40	Z40	X41	Y41	Z41	X42	Y42	Z42	X43	Y43	Z43	X44	Y44	Z44	X45	Y45	Z45	X46	Y46	Z46	X47	Y47	Z47	X48	Y48	Z48	X49	Y49	Z49	X50	Y50	Z50	X51	Y51	Z51	X52	Y52	Z52	

312	1.555	1212.20190	293.81003	1284.00134	1329.17566	342.14844	1290.76697	1076.81482	331.29330	1298.60864	1200.70032	427.40445	1249.87927	1505.39917	324.00958	1264.07507	1637.45398	368.79947	1191.38696	1634.62305	298.45377	1226.05469	1629.65979	341.54550	1349.41345	1599.61316	414.17902	1438.29724	1639.41882	391.63962	1452.39783	876.63446	293.36591	1264.07214	760.72064	336.91342	1190.86926	761.90839	266.34882	1221.65625	800.88684	323.27109	1353.87854	842.57318	386.34705	1421.30432	791.53644	366.92841	1437.72009	1321.10168	450.04233	780.67877	1277.32922	273.25763	852.75916	1360.07190	380.94391	867.52759	1080.84875	436.02295	778.31348	1161.30518	269.66473	846.86700	1057.22229	373.85028	857.20868	1381.88696	404.84784	523.94952	1379.78333	395.12769	409.32016	1394.47803	346.15009	384.14612	1392.91174	297.66620	535.42908	1372.18604	289.95395	417.57654	1378.93835	341.42981	305.53976	1250.55750	325.12790	313.40210	1399.28198	211.32831	296.61096	1381.56018	92.41922	292.68622	1387.52478	207.27348	371.82800	1371.88684	92.54488	374.40610	1362.51233	-76.57104	330.18240	1288.60168	-57.73372	287.37317	1302.61719	-113.02847	372.83044	1393.97119	-133.86134	220.83580	1360.89917	-103.65257	170.44415	1014.63611	394.64075	526.85834	1010.52789	383.34564	388.00040	1013.39807	276.14700	542.90289	1022.18268	270.23782	405.22855	998.37976	305.41202	331.85931	1123.21411	312.39667	303.61526	984.45563	195.38174	308.94461	1011.64948	198.67986	394.34766	1027.33936	79.42402	384.68356	1028.48010	-98.86615	337.23257	1100.59509	-64.46460	293.43643	1083.50891	-114.65846	381.59995	1019.88507	-167.19690	214.81526	1053.35046	-126.18819	166.56656	
313	1.560	1212.18152	294.06369	1283.97791	1329.15820	342.37189	1290.76013	1076.78857	331.57425	1298.62781	1200.66992	427.63666	1249.86499	1505.39392	324.19196	1264.00171	1637.48145	368.85849	1191.27405	1634.57764	298.63141	1225.95410	1629.69446	341.88123	1349.25488	1599.51819	414.39929	1438.12415	1639.30859	391.87955	1452.27197	876.66278	293.61832	1264.07141	760.70636	337.16547	1190.94849	761.94006	266.62335	1221.68127	800.95874	323.57385	1353.94165	842.64404	386.62448	1421.36572	791.61346	367.24124	1437.82385	1321.05750	450.17975	780.64893	1277.26294	273.45654	852.80219	1360.01917	381.13858	867.54639	1080.81738	436.15402	778.23224	1161.23120	269.85397	846.90961	1057.17993	374.05743	857.16382	1381.83179	404.93869	523.94183	1379.80542	395.16589	409.30789	1394.44836	346.19705	384.16367	1392.90527	297.75372	535.49194	1372.18018	290.00943	417.60791	1378.89868	341.41428	305.61096	1250.55493	325.09445	313.42056	1399.23865	211.32858	296.64401	1381.55286	92.42305	292.74051	1387.53174	207.26558	371.85297	1371.90198	92.54058	374.42709	1362.57288	-76.57925	330.20956	1288.59766	-57.73532	287.42758	1302.58130	-113.03424	372.90601	1393.94482	-133.83418	220.90268	1360.87305	-103.64286	170.48962	1014.56104	394.68481	526.82312	1010.46082	383.36801	387.95523	1013.36932	276.24011	542.92224	1022.19965	270.29990	405.22784	998.36810	305.43359	331.84668	1123.23828	312.39816	303.61600	984.48608	195.46523	309.01755	1011.64850	198.74277	394.35849	1027.32678	79.43646	384.73358	1028.44714	-98.90033	337.26910	1100.58569	-64.50975	293.49338	1083.77808	-114.66033	381.72336	1019.85315	-167.19640	214.83517	1053.35962	-126.17476	166.55621	
314	1.565	1212.16675	294.32816	1284.01074	1329.15796	342.60297	1290.72803	1076.79443	331.85788	1298.64087	1200.66492	427.88223	1249.83459	1505.37830	324.36871	1263.90503	1637.41638	369.08237	1191.13904	1634.52930	298.82166	1225.90356	1629.49841	341.93585	1349.15674	1599.44727	414.63574	1437.92200	1639.20374	392.08496	1452.17566	876.63733	293.88986	1264.18152	760.68738	337.43274	1191.03503	761.89539	266.91898	1221.81396	801.01447	323.85361	1354.02698	842.75879	386.93716	1421.38000	791.72107	367.52243	1437.87610	1320.97583	450.35107	780.62891	1277.18701	273.64462	852.85583	1359.96875	381.30579	867.55280	1080.78064	436.31375	778.21259	1161.13440	270.02060	846.96228	1057.12512	374.25543	857.15942	1381.79236	405.01352	523.96857	1379.77563	395.23224	409.31384	1394.44373	346.22769	384.19003	1392.89746	297.85876	535.50165	1372.19141	290.04437	417.65598	1378.93274	341.43680	305.66281	1250.55835	325.09103	313.42935	1399.27380	211.36562	296.66959	1381.55640	92.43974	292.77295	1387.55273	207.28111	371.87787	1371.93835	92.53466	374.42163	1362.54944	-76.57922	330.22156	1288.62305	-57.70336	287.44824	1302.64673	-113.01920	372.87421	1393.97278	-133.84727	220.89996	1360.91040	-103.63257	170.49933	1014.62280	394.76578	526.76849	1010.49017	383.40479	387.93414	1013.35706	276.31122	542.92285	1022.18799	270.30524	405.24371	998.38342	305.43109	331.85229	1123.23755	312.38089	303.60947	984.48730	195.32127	309.05081	1011.62305	198.78586	394.34921	1027.34558	79.42147	384.77893	1028.47473	-98.88367	337.27936	1100.57434	-64.50393	293.56534	1083.53577	-114.66808	381.59875	1019.84918	-167.18895	214.82713	1053.33875	-126.16608	166.56392	
315	1.570	1212.16748	294.56207	1283.95203	1329.13843	342.87891	1290.73706	1076.78210	332.12195	1298.67908	1200.63489	428.14517	1249.85767	1505.34595	324.55692	1263.84058	1637.39063	369.17542	1191.01294	1634.48279	298.98508	1225.78333	1629.43542	342.12250	1349.04419	1599.37268	414.84473	1437.75073	1639.12585	392.29379	1452.02808	876.63293	294.11707	1264.27686	760.65179	337.67188	1191.13855	761.87347	267.18008	1221.91321	801.09167	324.15884	1354.06665	842.82690	387.19467	1421.49133	791.83203	367.81015	1437.96558	1320.97778	450.50421	780.58960	1277.11768	273.84732	852.91461	1359.92395	381.49323	867.51282	1080.74792	436.48566	778.16052	1161.11182	270.23129	846.97015	1057.09167	374.47842	857.12720	1381.79492	405.13007	523.96130	1379.75854	395.26956	409.28021	1394.39917	346.26572	384.16058	1393.18799	297.82471	535.70020	1372.18201	290.09418	417.66150	1378.86987	341.44601	305.63123	1250.57422	325.07541	313.43442	1399.23975	211.34163	296.66086	1381.54077	92.44418	292.80215	1387.55994	207.28098	371.86288	1371.92322	92.56497	374.47217	1362.53516	-76.58244	330.26584	1288.63525	-57.72564	287.40158	1302.63196	-113.03828	372.91132	1393.98474	-133.85207	220.96837	1360.82996	-103.59144	170.66376	1014.59247	394.76245	526.74127	1010.46021	383.44354	387.86847	1013.30811	276.42700	542.94269	1022.19403	270.36099	405.25330	998.39764	305.44116	331.83038	1123.23779	312.38885	303.61209	984.39789	195.17703	309.00244	1011.62823	198.79153	394.37064	1027.35144	79.43275	384.80426	1028.46118	-98.89837	337.29285	1100.56555	-64.47523	293.64505	1083.52405	-114.69698	381.67114	1019.83582	-167.17532	214.83568	1053.31079	-126.17725	166.58144	
